<?xml version="1.0" encoding="UTF-8" standalone="no"?>
<svg
   xmlns:dc="http://purl.org/dc/elements/1.1/"
   xmlns:cc="http://creativecommons.org/ns#"
   xmlns:rdf="http://www.w3.org/1999/02/22-rdf-syntax-ns#"
   xmlns:svg="http://www.w3.org/2000/svg"
   xmlns="http://www.w3.org/2000/svg"
   xmlns:xlink="http://www.w3.org/1999/xlink"
   xmlns:sodipodi="http://sodipodi.sourceforge.net/DTD/sodipodi-0.dtd"
   xmlns:inkscape="http://www.inkscape.org/namespaces/inkscape"
   width="208.0672mm"
   height="33.327789mm"
   viewBox="0 0 208.0672 33.327789"
   version="1.1"
   id="svg8"
   inkscape:version="1.0.1 (3bc2e813f5, 2020-09-07)"
   sodipodi:docname="Full_Logo_Light.svg">
  <defs
     id="defs2">
    <linearGradient
       inkscape:collect="always"
       id="linearGradient956">
      <stop
         style="stop-color:#ffffff;stop-opacity:1"
         offset="0"
         id="stop952" />
      <stop
         style="stop-color:#aa44ff;stop-opacity:1"
         offset="1"
         id="stop954" />
    </linearGradient>
    <linearGradient
       inkscape:collect="always"
       xlink:href="#linearGradient956"
       id="linearGradient958"
       x1="41.175278"
       y1="153.40732"
       x2="194.815"
       y2="153.63"
       gradientUnits="userSpaceOnUse" />
  </defs>
  <sodipodi:namedview
     id="base"
     pagecolor="#555555"
     bordercolor="#666666"
     borderopacity="1.0"
     inkscape:pageopacity="0"
     inkscape:pageshadow="2"
     inkscape:zoom="0.79514985"
     inkscape:cx="212.41565"
     inkscape:cy="105.891"
     inkscape:document-units="mm"
     inkscape:current-layer="layer1"
     inkscape:document-rotation="0"
     showgrid="false"
     inkscape:window-width="1800"
     inkscape:window-height="1166"
     inkscape:window-x="-11"
     inkscape:window-y="-11"
     inkscape:window-maximized="1"
     fit-margin-top="0"
     fit-margin-left="0"
     fit-margin-right="0"
     fit-margin-bottom="0"
     inkscape:pagecheckerboard="false" />
  <metadata
     id="metadata5">
    <rdf:RDF>
      <cc:Work
         rdf:about="">
        <dc:format>image/svg+xml</dc:format>
        <dc:type
           rdf:resource="http://purl.org/dc/dcmitype/StillImage" />
        <dc:title></dc:title>
      </cc:Work>
    </rdf:RDF>
  </metadata>
  <g
     inkscape:label="Layer 1"
     inkscape:groupmode="layer"
     id="layer1"
     transform="translate(-1.0637028,-148.35336)">
    <g
       aria-label="SomeonP"
       id="text853"
       style="font-size:46.2886px;line-height:1.25;font-family:'Lexend Deca';-inkscape-font-specification:'Lexend Deca';stroke-width:1.15722">
      <path
         d="m 54.249242,169.04436 q 0,3.70309 -1.66639,6.57298 -1.620101,2.82361 -4.443705,4.44371 -2.777316,1.6201 -6.248962,1.6201 -3.471645,0 -6.295249,-1.6201 -2.823605,-1.6201 -4.489995,-4.44371 -1.620101,-2.86989 -1.620101,-6.57298 0,-3.70309 1.620101,-6.52669 1.66639,-2.8699 4.489995,-4.49 2.823604,-1.6201 6.295249,-1.6201 3.471646,0 6.248962,1.6201 2.823604,1.6201 4.443705,4.49 1.66639,2.8236 1.66639,6.52669 z m -4.860303,0 q 0.04629,-2.4533 -0.972061,-4.30484 -0.97206,-1.89783 -2.684739,-2.91618 -1.712678,-1.06464 -3.841954,-1.06464 -2.129275,0 -3.888242,1.06464 -1.712678,1.01835 -2.731027,2.91618 -0.972061,1.85154 -0.925772,4.30484 -0.04629,2.40701 0.925772,4.30484 1.018349,1.85154 2.731027,2.91618 1.758967,1.06464 3.888242,1.06464 2.129276,0 3.841954,-1.06464 1.712679,-1.06464 2.684739,-2.91618 1.018349,-1.89783 0.972061,-4.30484 z"
         style="stroke-width:1.15722;fill:#ffffff"
         id="path857" />
      <path
         d="m 71.79261,156.50015 q 3.008759,0 4.814014,1.38866 1.805256,1.34237 2.592162,3.70308 0.64804,-1.15721 1.897833,-2.31443 1.249792,-1.2035 2.916182,-1.9904 1.666389,-0.78691 3.564222,-0.78691 3.147625,0 4.906591,1.38866 1.758967,1.34237 2.453296,3.6568 0.740618,2.26814 0.740618,5.09174 v 14.58091 h -4.814015 v -14.30318 q 0,-2.68473 -1.018349,-4.35112 -1.018349,-1.66639 -3.841954,-1.66639 -2.684738,0 -4.443705,1.71267 -1.712679,1.66639 -1.712679,4.0734 v 14.53462 h -4.814014 v -14.39575 q 0,-2.59216 -1.110926,-4.25855 -1.110927,-1.66639 -3.6568,-1.66639 -1.758967,0 -3.147625,0.7869 -1.388658,0.78691 -2.175564,2.08299 -0.786906,1.24979 -0.786906,2.8236 v 14.6272 h -4.814015 v -24.30151 h 4.814015 v 3.88824 q 1.110926,-1.66639 3.101336,-2.96247 2.036698,-1.34237 4.536283,-1.34237 z"
         style="stroke-width:1.15722;fill:#ffffff"
         id="path859" />
      <path
         d="m 122.94149,178.02435 h -0.0463 q -1.48124,1.43494 -4.0734,2.54587 -2.59216,1.11093 -5.41577,1.11093 -3.79566,0 -6.71184,-1.57381 -2.8699,-1.62011 -4.49,-4.39742 -1.6201,-2.82361 -1.6201,-6.38783 0,-4.0734 1.71268,-6.94329 1.71268,-2.91618 4.53628,-4.4437 2.82361,-1.57382 6.15639,-1.57382 3.05504,0 5.55463,1.52753 2.49958,1.48123 3.98082,4.11968 1.48123,2.63845 1.48123,6.15639 l -0.0463,2.03669 H 105.3518 q 0.41659,3.2865 2.68474,5.23062 2.31443,1.89783 5.83236,1.89783 2.54587,0 4.11968,-0.92577 1.57382,-0.97206 2.59217,-1.85155 z m -9.95204,-17.26565 q -2.73103,0 -4.76773,1.29608 -2.0367,1.24979 -2.68474,4.35113 h 13.60885 v -0.32402 q -0.13887,-1.57381 -1.06464,-2.77732 -0.87948,-1.2035 -2.22185,-1.85154 -1.34237,-0.69433 -2.86989,-0.69433 z"
         style="stroke-width:1.15722;fill:#ffffff"
         id="path861" />
      <path
         d="m 152.47356,169.04436 q 0,3.70309 -1.66639,6.57298 -1.62011,2.82361 -4.44371,4.44371 -2.77732,1.6201 -6.24896,1.6201 -3.47165,0 -6.29525,-1.6201 -2.82361,-1.6201 -4.48999,-4.44371 -1.62011,-2.86989 -1.62011,-6.57298 0,-3.70309 1.62011,-6.52669 1.66638,-2.8699 4.48999,-4.49 2.8236,-1.6201 6.29525,-1.6201 3.47164,0 6.24896,1.6201 2.8236,1.6201 4.44371,4.49 1.66639,2.8236 1.66639,6.52669 z m -4.86031,0 q 0.0463,-2.4533 -0.97206,-4.30484 -0.97206,-1.89783 -2.68474,-2.91618 -1.71268,-1.06464 -3.84195,-1.06464 -2.12928,0 -3.88824,1.06464 -1.71268,1.01835 -2.73103,2.91618 -0.97206,1.85154 -0.92577,4.30484 -0.0463,2.40701 0.92577,4.30484 1.01835,1.85154 2.73103,2.91618 1.75896,1.06464 3.88824,1.06464 2.12927,0 3.84195,-1.06464 1.71268,-1.06464 2.68474,-2.91618 1.01835,-1.89783 0.97206,-4.30484 z"
         style="stroke-width:1.15722;fill:#ffffff"
         id="path863" />
      <path
         d="m 170.38722,156.40757 c 2.19099,0 3.88824,0.44746 5.09175,1.34237 1.2035,0.89491 2.03669,2.09842 2.49958,3.61051 0.49375,1.51209 0.74062,3.19391 0.74062,5.04546 v 14.81235 h -4.76772 v -14.48833 c 0,-1.17265 -0.1543,-2.22186 -0.46289,-3.14763 -0.30859,-0.92577 -0.8332,-1.65095 -1.57381,-2.17556 -0.74062,-0.52461 -1.7744,-0.74062 -3.10134,-0.64804 -1.23436,0 -2.32986,0.2623 -3.28649,0.78691 -0.95663,0.5246 -1.71268,1.21893 -2.26814,2.08298 -0.55547,0.86405 -0.8332,1.82069 -0.8332,2.8699 v 14.71977 h -4.76772 v -24.30151 h 4.76772 v 3.84225 c 0.74062,-1.14179 1.82069,-2.14501 3.24021,-3.00906 1.41951,-0.89491 2.99332,-1.34237 4.72143,-1.34237 z"
         style="stroke-width:1.15722;fill:#ffffff"
         id="path865"
         sodipodi:nodetypes="sscsccssscsssccccccs" />
      <path
         id="path867"
         style="stroke-width:4.37374;fill:#ffffff"
         d="m 723.4082,562.45508 h -18.89258 v 122.46484 h 18.89454 V 638.0332 Z"
         transform="scale(0.26458333)" />
      <path
         id="path1015"
         style="fill:#b042f4;fill-opacity:1;stroke-width:4.37374"
         d="m 723.4082,562.45508 12.90039,18.19336 17.7168,0.002 c 4.66534,0 8.68993,1.86541 12.07227,5.59766 3.38233,3.73224 5.07422,8.3386 5.07422,13.82031 0,3.61561 -0.81831,6.94023 -2.45118,9.97266 -1.51623,2.91583 -3.55712,5.30772 -6.12304,7.17382 -2.56593,1.74951 -5.4232,2.62305 -8.57227,2.62305 h -17.7168 l -12.89843,18.19531 h 5.33984 25.625 c 6.53144,0 12.53973,-1.69188 18.02148,-5.07422 5.48172,-3.38233 9.8554,-7.92954 13.1211,-13.64453 3.2657,-5.83162 4.89844,-12.24811 4.89844,-19.24609 0,-7.11458 -1.63274,-13.46997 -4.89844,-19.06836 -3.2657,-5.71499 -7.63938,-10.205 -13.1211,-13.4707 -5.48175,-3.38234 -11.49004,-5.07422 -18.02148,-5.07422 z"
         transform="scale(0.26458333)" />
    </g>
    <g
       inkscape:groupmode="layer"
       id="layer2"
       inkscape:label="Layer 2">
      <path
         d="M 191.402,148.81624 V 153.63 c -58.77986,-0.19954 -119.908695,-0.22242 -177.701509,-0.78665 -1.697249,0 -3.132195,0.40117 -4.3048401,1.2035 -1.1417855,0.77148 -1.7126782,1.85155 -1.7126782,3.24021 0,1.57381 0.6017518,2.73102 1.8052554,3.47164 1.2343629,0.70976 2.8544639,1.28065 4.8603029,1.71268 1.820685,0.37031 3.548793,0.9412 5.184324,1.71268 1.63553,0.77147 2.96247,1.77439 3.980819,3.00876 1.049209,1.2035 1.573813,2.6693 1.573813,4.39741 0,3.08591 -1.049208,5.5392 -3.147625,7.35989 -2.098417,1.82069 -4.98374,2.73103 -8.655969,2.73103 -2.499584,0 -4.783155,-0.49375 -6.8507125,-1.48124 -2.0366985,-0.98749 -3.8265244,-2.59216 -5.3694777,-4.81401 l 3.4253564,-3.93453 c 1.2652218,1.82068 2.5767322,3.2402 3.9345311,4.25855 1.3886578,0.98749 3.1784837,1.48123 5.3694777,1.48123 1.049208,0 2.052128,-0.16972 3.008759,-0.50917 0.956631,-0.33945 1.743538,-0.8332 2.360719,-1.48124 0.617181,-0.64804 0.925772,-1.41952 0.925772,-2.31443 0,-1.54295 -0.66347,-2.74646 -1.99041,-3.61051 -1.296081,-0.86405 -3.132195,-1.52752 -5.508344,-1.99041 -3.0241883,-0.61718 -5.4311955,-1.68182 -7.2210214,-3.19391 -1.7898259,-1.54295 -2.6847388,-3.76481 -2.6847388,-6.66556 0,-1.85155 0.5091746,-3.45622 1.5275238,-4.81401 1.0492083,-1.3578 2.4224368,-2.40701 4.1196855,-3.14763 1.6972489,-0.74061 3.5333629,-1.11092 5.5083439,-1.11092 l 172.563693,0.46288"
         style="font-size:46.2886px;line-height:1.25;font-family:'Lexend Deca';-inkscape-font-specification:'Lexend Deca';fill:url(#linearGradient958);fill-opacity:1;stroke-width:1.15722"
         id="path855"
         sodipodi:nodetypes="ccccsccscsssccccsssscccscscc" />
    </g>
  </g>
</svg>
